<svg xmlns="http://www.w3.org/2000/svg" viewBox="0 0 566 783"><g transform="matrix(0.98913,0,0,0.996225,10.77294,-4.938768)"><path fill="#000" d="M 496.44526,322.2401 L 501.64944,329.58136 C 508.81944,338.14725 508.93827,340.17855 508.93827,342.52017 C 508.93827,346.11762 528.27132,356.68118 524.49322,353.88794 C 520.71512,351.0947 533.87135,362.45928 533.87135,362.45928 L 546.87809,373.6339 L 559.74923,385.93832 L 559.60224,5.682018 L -10.857242,7.3879386 L -10.656551,213.41945 C -10.655961,214.02559 3.59799,214.14534 0.31049004,213.70752 L 5.382349,212.62478 C 10.397327,205.62245 17.332529,202.66302 16.924389,210.25804 L 24.761779,209.05248 L 32.215569,206.33394 C 36.315149,204.83874 41.969249,206.63508 44.780229,206.19072 C 47.974019,205.68585 49.942539,201.00053 51.920459,199.33622 C 53.661319,197.87139 56.974459,200.05174 57.894759,200.04637 C 61.983529,200.0225 68.240009,191.85927 75.999079,184.45913 C 84.578349,176.27674 91.198459,174.23676 97.782859,174.23676 C 101.81358,174.23676 106.84064,180.39597 115.88536,188.20115 C 118.25989,190.25026 121.40989,192.19302 122.88536,192.51839 C 124.61563,192.89996 128.31452,196.26632 133.30414,202.00055 C 138.40443,207.86196 141.98195,211.10178 143.80414,211.50939 C 145.32429,211.84943 148.05595,213.91156 149.8745,216.0919 L 158.29225,219.49226 L 159.06804,227.99062 L 159.85974,234.06575 C 159.88048,234.22493 159.85697,237.31864 159.49707,241.30614 C 158.91749,247.72746 159.14528,249.29909 161.48996,255.05614 C 162.94596,258.63114 164.83385,264.25614 165.68528,267.55614 C 166.5367,270.85614 167.91653,275.00625 168.75156,276.77861 C 170.18884,279.82926 170.13112,280.24922 167.66892,284.65457 C 164.44162,290.42884 164.41798,291.80283 167.52165,293.21696 C 169.86657,294.28537 171.04561,293.79819 174.15826,293.84496 L 177.65825,297.36612 C 179.60933,299.63438 179.88582,300.80507 179.41567,304.80701 C 178.90139,309.18455 179.10069,309.77192 181.96289,312.31385 C 183.67072,313.8306 185.06804,315.64224 185.06804,316.33972 C 185.06804,317.0372 187.09304,320.86183 189.56804,324.8389 C 192.04304,328.81596 194.06804,332.73828 194.06804,333.55516 C 194.06804,334.37204 196.36626,338.65082 194.31631,339.61765 C 189.93943,341.68195 183.94637,342.99968 186.06913,345.55745 C 187.16473,346.87757 188.55908,347.05565 193.58535,346.51738 C 201.83179,345.63426 207.30507,348.19279 209.12818,353.783 C 211.35534,360.61218 217.47448,370.25833 223.19238,375.95385 C 230.04338,382.77788 234.06808,390.33344 234.06808,396.37068 C 234.06808,400.4166 234.52128,401.18403 239.99378,406.40392 C 243.25298,409.51264 246.37558,412.05614 246.93298,412.05614 C 249.74838,412.05614 270.60958,428.47029 272.97418,433.39213 L 275.56808,441.55614 L 282.56808,441.62471 C 286.41808,441.66243 291.89058,442.05788 294.72928,442.50349 C 297.99738,443.01651 301.03718,442.91396 303.01668,442.22389 C 308.00088,440.4864 313.53098,442.71278 316.46978,449.34603 C 317.87678,452.52172 316.65598,456.80614 317.22758,459.55614 C 317.79918,462.30614 319.00968,465.68114 319.91748,467.05614 C 320.82528,468.43114 326.90438,470.06914 327.17938,471.38532 C 327.73678,474.05312 323.45018,475.18226 330.41708,477.67116 C 334.01608,478.95693 335.65308,480.21514 336.76758,482.55231 C 338.22478,485.60813 342.15298,488.04825 339.14398,491.05722 C 335.79118,494.41006 331.60518,492.77546 333.04688,495.05614 C 333.80108,496.24908 336.40798,496.56007 345.78158,496.57533 L 357.56808,496.59452 L 361.88858,505.26696 C 362.39068,509.10641 363.90418,515.19012 363.86358,518.09716 C 363.79238,523.1937 359.40028,521.2421 363.55258,524.34166 C 365.94488,526.1274 370.17358,529.77849 371.64708,532.55614 C 373.10588,535.30614 376.67968,540.14364 378.89448,543.30614 C 382.37168,548.27091 381.65518,549.05614 384.42038,549.05614 C 388.26298,549.05614 391.85838,546.73776 393.10638,543.45523 C 394.40778,540.03249 397.74378,540.44096 401.22718,545.69989 C 404.86468,551.19157 407.57558,558.34572 406.10978,562.20103 C 403.39848,569.33237 404.74828,575.56603 410.91568,582.59031 C 413.95748,586.05474 415.92718,593.28447 414.41318,598.93389 C 415.26893,602.50394 408.27883,608.82608 408.98244,612.78106 C 409.74371,617.06022 418.14103,618.97652 417.44795,622.89078 C 416.20424,629.91467 411.55117,635.66869 399.6564,637.70397 C 396.52137,638.24039 396.04396,640.87211 391.71552,640.75982 C 389.15237,640.69332 393.54467,645.56494 396.27473,647.56693 L 390.57332,662.85361 L 378.75281,669.70933 C 377.77766,675.30514 376.80251,680.90095 375.82737,686.49676 C 374.95785,691.48643 381.17898,692.67497 386.56105,689.92148 L 397.55085,690.22617 L 405.13987,676.28556 C 411.43174,670.43564 417.19186,663.52978 426.37918,663.42952 C 431.74113,658.78685 433.0742,650.94403 430.8646,640.28726 C 439.54793,630.25708 450.05851,625.66957 463.28121,629.1605 L 469.44266,623.03422 L 465.89871,614.0294 L 466.34476,605.46819 C 467.83076,602.59451 473.46896,597.67629 471.29966,593.76197 C 468.89796,589.42852 458.66108,577.87988 455.84928,577.86994 C 454.98168,577.86688 446.33528,577.95907 445.97418,575.13013 C 445.59318,572.1456 444.59668,572.0525 442.98158,568.88674 L 440.90368,564.81371 L 443.34428,559.18492 C 444.68668,556.08909 446.35958,552.0782 447.06198,550.27182 C 447.76438,548.46545 450.36648,545.20295 452.84438,543.02182 C 456.40308,539.88935 458.14678,539.05614 461.14378,539.05614 C 464.14068,539.05614 460.41088,532.02259 465.45198,528.77123 C 470.49318,525.51987 473.06808,522.71239 473.06808,520.46725 C 473.06808,519.14114 473.64288,518.05614 474.34558,518.05614 C 476.77868,518.05614 480.06808,521.17986 480.06808,523.4904 C 480.06808,524.76687 480.75388,526.38048 481.59218,527.0762 C 482.43048,527.77192 495.11188,532.88934 495.86558,532.27145 C 496.61928,531.65356 497.67878,537.54234 500.97978,538.62206 C 501.95908,538.94238 507.63372,536.21953 512.2283,539.40098 C 515.49386,541.66217 517.65176,549.41722 519.71572,552.08469 C 524.21576,557.90059 521.44273,563.45375 526.07915,568.20199 C 531.74933,574.00893 537.73784,572.81836 537.73784,574.35456 L 546.44564,552.08608 L 539.21276,537.23216 L 526.33777,523.18309 C 525.76337,516.43067 521.86488,511.6585 513.72079,509.41555 L 502.50258,497.17433 C 500.81658,496.14896 497.89878,493.36764 496.01858,490.99363 C 492.27418,486.26596 481.54608,480.30994 480.68418,479.74777 C 475.06248,476.0811 471.71248,474.10606 466.09088,470.43939 C 464.51458,469.41128 449.56438,464.30529 443.63258,461.14365 C 439.83228,459.11815 438.88368,454.21017 437.08798,451.62657 C 435.53208,449.38783 432.64948,446.01358 430.68238,444.12823 C 427.15098,440.74372 424.39798,434.94931 425.48538,433.18986 C 425.79318,432.69191 429.08768,431.49046 432.80648,430.51998 C 440.99248,428.38376 443.46808,426.31912 443.46808,421.6281 C 443.46808,414.5141 438.59048,414.72037 424.70608,415.10392 C 420.13708,415.23014 412.86328,414.83713 408.71588,414.89114 C 402.14668,414.97669 398.13708,412.13611 393.25158,410.12758 C 390.01968,408.79891 384.32838,408.94427 384.70338,406.56184 C 385.32928,402.58509 377.04718,400.84842 372.88658,400.59358 C 369.14398,400.36434 371.29288,396.84875 368.80898,391.94717 C 367.05398,388.48374 363.78628,388.19751 360.95628,386.75378 C 358.77248,385.63968 359.43738,381.73718 358.61608,380.14909 C 357.79488,378.56101 352.41698,375.08919 348.74768,369.67723 C 344.00218,362.67789 341.96998,356.19102 341.00848,352.06942 C 340.26508,348.88255 336.39078,342.40321 335.17558,340.08303 C 333.19268,336.29706 336.65108,336.01812 336.59368,322.55614 L 333.12228,308.12002 L 330.67118,296.34639 C 328.07358,289.8709 324.52698,284.4796 324.17818,282.2982 C 323.47298,277.88827 322.50558,275.21734 317.08118,272.43885 C 315.14898,271.44914 310.30338,268.16124 309.08968,266.51077 C 307.87608,264.86029 304.06738,259.81453 298.54348,255.29796 C 293.01968,250.7814 285.06968,249.0772 286.79638,245.87314 L 280.60118,240.20954 C 277.03298,237.69101 271.88868,224.44509 269.92058,205.22607 L 269.25158,193.61849 L 275.32958,189.65946 C 279.22908,187.91426 283.07658,183.47079 283.05718,180.32016 C 283.05128,179.34995 279.53668,176.34712 278.71758,173.64721 C 277.89858,170.9473 280.06808,167.15773 280.06808,165.22595 C 280.06808,163.29417 278.05528,160.84214 276.82658,161.1423 C 273.29458,162.00515 274.93608,155.58804 275.91338,153.44322 C 276.97468,151.11385 280.92078,150.32777 284.22518,150.85617 C 285.22271,151.01568 286.07105,148.83217 286.8036,146.48977 C 287.57039,144.03787 288.41111,143.8042 288.96247,143.50912 C 290.2576,142.39008 290.81589,140.92082 293.30299,143.72721 C 294.95422,145.09053 299.53276,141.2499 303.33811,136.7942 C 304.71976,135.17642 308.40337,138.55971 310.63258,136.97015 C 312.01559,135.98398 317.90728,136.35397 320.93228,135.9255 C 326.14298,135.18743 324.71858,131.59851 324.54018,128.99316 C 324.30068,125.49515 328.96938,127.41811 333.85328,130.73676 C 338.08058,133.60931 341.08068,136.18181 343.59318,132.49838 C 344.81718,130.70394 349.44648,133.08214 350.94298,135.36617 C 354.89798,141.40212 355.73408,153.49864 350.93278,151.64314 C 347.70588,150.39604 341.04108,156.58859 341.66098,159.31283 C 342.34618,162.32355 339.82928,158.41719 339.49838,168.08408 C 339.18378,177.27687 338.84988,178.29725 340.52978,181.64027 C 341.61218,183.794 344.96578,187.89318 345.90008,190.74956 C 348.10498,197.49078 347.53888,201.05614 350.70638,201.05614 C 354.53928,201.05614 356.54378,199.54506 358.51778,195.16769 C 360.14898,191.55029 360.60688,187.83066 363.19528,188.34834 C 365.87688,188.88466 366.22998,191.94409 368.59408,186.78015 C 369.98538,183.74123 371.84768,180.65402 372.73248,179.91966 C 373.61738,179.1853 375.16378,176.66559 376.16918,174.3203 C 377.17448,171.97501 378.99818,168.08258 379.52778,168.08258 C 380.76148,168.08258 385.49708,171.23167 386.32618,173.84424 C 386.76338,175.22157 396.76294,178.38489 395.16914,178.95465 C 389.80324,180.87286 383.99798,181.93414 384.28908,190.36451 C 384.35178,192.1804 387.40948,190.8687 389.28868,192.5187 C 392.99628,195.77397 393.4458,197.33491 395.5157,196.02386 C 396.869,195.16673 396.25288,195.24127 394.50818,187.55614 C 393.87338,184.75999 389.96708,182.41021 391.54888,183.91306 C 393.70068,185.95744 401.35218,181.37386 400.45688,188.53901 L 406.83951,192.7019 L 402.16598,201.39346 L 403.16744,216.1091 L 417.40908,238.55834 L 429.20088,250.19489 C 431.09268,255.43503 428.87773,255.8563 422.44008,251.32264 C 421.00948,250.84062 414.69338,243.6925 413.37828,246.96033 C 412.09468,250.14983 413.91219,252.32665 414.75164,254.74974 L 416.77048,260.57716 C 417.9315,263.92848 418.58248,264.62132 418.58248,264.62132 L 425.05698,268.6526 C 426.43148,269.93941 433.77328,278.36764 436.51328,281.86854 C 439.25328,285.36943 443.56798,280.13196 444.71338,280.56742 C 446.56138,281.27006 441.64188,284.83622 441.30598,290.02153 C 440.94488,295.59755 439.95718,295.47197 443.41268,299.05064 C 447.47648,303.25928 446.52748,304.63901 451.03188,303.06879 C 453.74158,302.1242 463.04758,294.85133 457.17658,303.62262 C 456.15998,305.14147 464.51688,305.75419 466.85688,305.94273 C 469.19688,306.13128 468.81808,307.77489 471.56808,308.90601 L 482.8799,311.00653 L 496.44526,322.2401 z M 525.54596,364.30965 L 522.35722,368.72385 C 521.05594,368.29008 522.61865,368.72774 516.8099,366.09011 C 513.6904,364.67361 501.17062,359.76205 501.27698,359.20988 C 501.44678,358.32795 502.63218,357.08466 503.91118,356.44701 L 525.54596,364.30965 z M 497.35586,338.40922 C 494.36146,340.59877 497.6872,337.85616 488.886,336.78582 C 480.0848,335.71548 481.05436,334.59508 478.46366,332.89761 C 477.04826,331.97023 469.36078,333.46957 469.01568,332.09438 C 467.50578,326.07846 470.38278,324.11254 477.56808,329.05614 C 479.96628,330.70614 483.02958,332.05614 484.37558,332.05614 C 485.72148,332.05614 490.06388,332.78809 494.02528,333.6827 C 501.47648,335.36539 500.35026,336.21967 497.35586,338.40922 z M 493.06808,343.18337 C 493.06808,340.79945 501.74764,350.98074 499.94814,349.72036 C 498.14864,348.45998 500.26598,352.18507 495.55598,352.66762 C 484.05688,353.84574 475.68848,352.23666 476.66698,347.10215 C 477.11758,344.73745 477.05778,341.63385 482.53948,343.49491 C 488.99818,345.68771 493.06808,345.56729 493.06808,343.18337 z M 479.70106,316.08425 C 483.77916,316.03937 488.1824,318.55955 487.4132,321.52773 C 486.644,324.49591 482.65938,325.05614 478.92488,325.05614 C 477.79788,325.05614 474.41798,324.3416 471.41378,323.46827 C 466.23268,321.96209 469.17938,320.32256 469.17938,316.55492 C 469.17938,314.13731 475.62296,316.12913 479.70106,316.08425 z M 58.211279,412.39301 C 50.664199,419.14566 63.545779,411.86801 50.834899,414.64851 C 38.124019,417.42901 41.190129,417.09569 41.190129,417.09569 L 28.78144,419.69679 L 19.78647,413.75132 L 24.050799,405.64035 L 16.27062,408.7792 L 16.900929,417.5568 L 8.4346508,432.75374 C 11.720904,435.2193 16.14702,442.21185 18.08928,439.33973 L 19.16603,450.50062 C 19.16603,450.50062 28.022949,453.30614 22.859159,464.03094 C 17.695359,474.75574 18.545599,462.63377 18.148379,472.56414 C 15.554989,475.32796 12.9616,478.09178 10.36821,480.8556 C 10.36821,480.8556 14.895902,479.27943 16.856746,483.93563 C 18.313092,487.39385 9.8857824,491.40301 11.953209,496.53044 C 13.81667,501.15201 -2.9426948,523.16591 0.046249613,528.31829 C 2.9512369,533.32595 1.9334575,550.74288 7.4168007,553.73596 C 12.085226,556.28423 17.876906,556.92982 23.893617,556.5826 C 29.314934,556.26974 30.375589,538.79845 35.505218,537.53908 C 43.362759,535.61 54.650561,549.70373 57.920217,549.50778 C 62.961668,549.20566 65.31409,532.1893 73.532224,516.10326 C 78.945748,505.50691 77.759691,494.38896 80.947202,485.76654 C 82.295879,482.11829 79.291595,475.89552 78.117951,472.79469 C 76.609601,468.80957 85.32682,467.64861 88.05491,464.7226 C 93.26529,459.13418 93.27449,471.32596 93.2745,455.75332 C 93.2745,447.41181 96.682019,456.88107 91.915439,443.77298 C 87.148869,430.66489 89.02004,441.82578 86.63675,425.93719 C 84.25346,410.0486 97.685282,412.50334 88.169799,413.45686 C 83.81794,413.89295 88.211549,411.53544 85.392589,409.35693 C 83.842539,408.15904 79.993319,404.46886 80.105529,405.8765 C 80.350009,408.94332 79.035589,401.65479 73.702659,401.27099 C 65.573509,400.68595 68.936079,399.28492 65.758359,405.64036 C 62.580639,411.99579 65.758359,405.64036 58.211279,412.39301 z M 372.57206,665.14781 C 374.3032,665.13549 364.36672,682.22528 348.42969,694.898 C 345.08705,697.55598 348.07962,704.3444 345.51952,708.05154 C 342.8559,711.90857 335.75449,718.1545 337.23725,723.09159 C 338.43014,727.06351 349.43119,730.92689 346.24445,732.77703 C 340.68209,736.00638 341.54102,744.6589 345.91931,746.09789 C 354.10703,748.78892 347.97047,752.27834 338.12191,755.34533 C 333.09072,756.91212 339.01713,771.90167 333.4633,773.08522 C 330.0575,773.81101 325.73015,769.1704 320.90721,767.29433 C 312.79194,764.13757 304.31352,762.61232 304.04822,762.45222 C 302.99348,761.81573 300.15706,748.83178 289.08721,738.11472 C 284.2382,733.42025 276.89605,736.183 270.85867,730.81391 C 265.48646,726.03638 258.73962,723.53276 253.13204,717.95687 C 248.26739,713.11971 240.95418,707.37163 235.82783,703.06621 C 230.64298,698.71166 227.64304,695.80701 222.37991,692.19825 C 218.75448,689.71241 212.13437,690.90117 209.64895,687.57539 C 207.30092,684.43345 198.03385,678.30881 197.72135,673.23523 C 197.29451,666.3051 206.19953,660.35966 204.43244,657.67531 C 200.467,651.65151 216.95794,651.35902 217.27938,649.89128 L 227.15556,659.68337 L 238.3844,652.67483 L 250.32953,651.67342 L 269.97497,670.38986 L 283.28462,668.07287 L 301.97765,673.21122 L 317.3961,672.17981 L 327.05841,666.78411 C 335.87459,663.88022 340.97378,667.1272 345.2928,671.66522 C 349.71722,667.85782 354.80752,666.69496 360.05927,666.17328 C 364.21239,665.76074 368.46648,665.74917 372.57206,665.14781 z M 396.1191,212.66953 C 397.6035,212.82216 396.63008,211.8443 395.13068,208.38726 C 389.08788,204.08441 390.849,212.12762 396.1191,212.66953 z M 412.06808,234.22009 C 406.43648,234.95079 401.16878,224.89058 404.30078,224.07366 C 404.95288,223.90356 397.17458,215.46737 395.08828,218.44572 C 393.98078,220.02671 401.22218,230.46155 403.11788,232.46242 C 406.48458,236.01592 409.20518,239.78661 411.30088,239.33812 C 412.97588,238.97963 413.93168,233.97828 412.06808,234.22009 z M 418.03148,269.21123 C 418.65888,266.55359 416.78488,266.95726 415.42868,266.8334 C 414.07248,266.70954 413.72878,268.70995 414.94088,270.62259 C 416.22188,272.64391 417.40408,271.86887 418.03148,269.21123 z M 74.856429,389.53474 C 74.113789,386.77676 70.28217,384.66226 65.2652,380.17045 C 61.48645,376.78725 61.770499,369.75202 61.037549,367.98252 C 59.774379,364.93297 59.853129,364.63774 62.548119,362.31961 C 64.830179,360.35667 65.112719,359.69761 63.979689,358.98037 C 63.203279,358.48889 61.645539,358.07987 60.518039,358.07145 C 55.969509,358.03748 54.721349,353.58363 58.068039,349.32901 C 60.416839,346.34299 60.657199,343.4962 58.626309,342.71687 C 57.833349,342.41259 56.431279,341.01396 55.510599,339.60882 C 53.924779,337.18855 53.951609,336.77068 56.020029,331.67442 C 57.628699,327.71091 58.020769,325.3211 57.509479,322.59567 C 57.065559,320.22937 57.280329,318.02798 58.105559,316.48604 C 59.202689,314.43603 62.554319,316.05615 61.139339,314.49261 C 58.776549,311.88176 60.745108,313.43416 64.429318,309.72249 C 66.216818,307.92167 66.703559,307.62949 67.593349,306.31647 L 69.779048,306.18468 L 72.834428,303.62495 C 76.040818,305.35171 76.264789,302.60431 79.148719,301.43115 C 81.455441,300.49279 81.866707,302.47915 85.296925,301.85035 C 88.994065,301.17263 95.171233,300.73215 98.327489,300.65275 C 104.33404,300.50163 101.47393,294.88746 102.55488,288.05614 C 103.59985,281.45225 105.95925,277.61808 108.47219,276.8205 C 109.66693,276.4413 112.36111,276.98325 113.76511,277.33563 C 116.14892,277.93392 112.2961,280.50975 111.64254,284.43142 C 111.25761,286.7412 110.04901,285.58114 109.65089,288.05614 C 109.25275,290.53114 107.14171,293.59476 106.54688,295.30009 C 105.59151,298.03906 106.51135,306.17714 103.86114,316.49172 C 102.6796,321.09024 107.47992,323.64736 107.59882,326.66129 C 107.94295,335.38482 106.77695,339.61533 103.63685,342.98269 C 100.58713,346.25314 96.660509,353.38354 96.660509,358.97509 C 96.660509,362.67921 94.96067,361.02625 91.52467,364.42808 C 89.32467,366.6062 88.092589,371.75888 88.092589,372.43259 C 88.092589,373.83337 85.202589,380.36553 82.175269,383.73126 C 79.281719,386.94825 76.019729,393.85491 74.856429,389.53474 z M 451.6219,339.13274 C 449.6063,336.7041 447.19678,336.31164 451.03718,336.31164 C 454.37748,336.10399 455.33358,336.01024 454.57358,339.04719 C 453.62598,340.5805 453.0186,340.81566 451.6219,339.13274 z M 404.20248,269.74226 C 401.866,265.59469 395.07322,254.90994 394.66948,252.96133 C 393.95201,249.49856 394.82158,250.09359 399.03368,254.64013 C 403.60128,259.57048 415.09584,274.98997 414.24404,277.20984 C 413.32824,279.59643 406.92268,272.7208 404.20248,269.74226 z "/></g></svg>